<?xml version="1.0" encoding="utf-8"?>
<!-- Generator: Adobe Illustrator 24.1.0, SVG Export Plug-In . SVG Version: 6.00 Build 0)  -->
<svg version="1.1" id="Layer_1" xmlns="http://www.w3.org/2000/svg" xmlns:xlink="http://www.w3.org/1999/xlink" x="0px" y="0px"
	 viewBox="0 0 128.32 49.2" style="enable-background:new 0 0 128.32 49.2;" xml:space="preserve">
<style type="text/css">
	.st0{fill:#FFFFFF;}
</style>
<g>
	<path class="st0" d="M77.95,25.79l-0.23-0.53l0.53-0.38l0.53-0.34l0.51-0.34l1.34-0.84c0.37-0.22,0.67-0.38,0.91-0.48
		c0.24-0.1,0.44-0.14,0.61-0.14c0.25,0,0.46,0.06,0.62,0.17c0.16,0.11,0.27,0.26,0.32,0.43l1.14,5.51c0.02,0.16,0.12,0.51,0.3,1.05
		c0.19,0.54,0.46,0.81,0.83,0.81c0.22,0,0.53-0.16,0.95-0.47c0.41-0.31,0.86-0.76,1.33-1.34c0.47-0.58,0.92-1.21,1.35-1.9
		c0.43-0.69,0.95-1.6,1.56-2.72l0.68-1.35l0.91-0.02l0.05,10.66l0.15,5.97l-3.64,1.18l0.05-2.98c0-1.09-0.04-2.64-0.11-4.64
		c-0.08-2.01-0.11-3.12-0.11-3.35l-0.89,1.16l-2.17,2.62l-0.28,0.31c-0.2,0.23-0.4,0.43-0.61,0.63c-0.2,0.19-0.41,0.37-0.63,0.54
		c-0.22,0.17-0.5,0.25-0.83,0.25c-0.56,0-0.95-0.25-1.18-0.73c-0.23-0.49-0.47-1.28-0.73-2.38c-0.26-1.1-0.5-2.24-0.72-3.43
		l-0.1-0.43c-0.19-0.64-0.34-1.17-0.47-1.58c-0.13-0.41-0.27-0.73-0.43-0.96c-0.16-0.23-0.4-0.35-0.72-0.35
		C78.45,25.38,78.18,25.51,77.95,25.79"/>
	<path class="st0" d="M99.42,28.3l0.91-0.19l-0.3-0.48c-0.96-1.4-1.87-2.1-2.73-2.1c-0.29,0-0.59,0.09-0.91,0.26l-0.2-0.29l1.77-1.4
		c0.51-0.4,0.93-0.7,1.28-0.9c0.35-0.2,0.65-0.3,0.92-0.3c0.35,0,0.72,0.17,1.1,0.52c0.38,0.35,0.89,0.91,1.52,1.7
		c0.63,0.79,1.34,1.8,2.11,3.03c0.78,1.23,1.67,2.79,2.68,4.67l0.33,0.6l-3.14,2.07c-0.07-0.23-0.16-0.47-0.28-0.73
		c-0.12-0.26-0.33-0.69-0.63-1.31c-0.3-0.61-0.71-1.18-1.21-1.72c-0.51-0.53-1.02-0.92-1.54-1.15c-0.52-0.23-0.94-0.39-1.25-0.47
		c-0.31-0.08-0.65-0.14-1.01-0.18c-0.36-0.04-0.62-0.06-0.77-0.06c-0.25,0-0.53,0.02-0.82,0.07c-0.3,0.05-0.53,0.17-0.71,0.35
		c-0.18,0.19-0.27,0.4-0.27,0.64c0,0.06,0.04,0.21,0.13,0.45c0.08,0.23,0.36,0.51,0.83,0.82c0.47,0.31,0.94,0.5,1.4,0.55
		c0.46,0.06,0.77,0.08,0.92,0.08c0.69,0,1.32-0.13,1.87-0.38l0.33,0.33l-0.05,0.05l-1.24,1.1c-0.64,0.57-1.19,0.97-1.64,1.21
		c-0.46,0.23-0.94,0.35-1.47,0.35h-0.61c-1.1-0.11-1.94-0.4-2.52-0.86c-0.58-0.46-0.87-1-0.87-1.63c0-0.4,0.12-0.81,0.37-1.23
		c0.24-0.42,0.59-0.84,1.02-1.26c0.44-0.42,0.97-0.8,1.59-1.16c0.62-0.35,1.37-0.64,2.23-0.87l0.35-0.07L99.42,28.3"/>
	<path class="st0" d="M53.82,26.19l-0.46-0.55l1.64-1.04l1.8-1.23l0.2-0.14c0.15-0.13,0.35-0.21,0.61-0.24
		c0.39-0.08,0.7,0.06,0.95,0.42c0.24,0.36,0.43,1.04,0.54,2.03l0.03,0.31l0.25,2.67l0.05,0.63l1.64-1.85c0.49-0.51,1-1.03,1.53-1.55
		c0.53-0.52,1-0.96,1.4-1.32c0.4-0.36,0.72-0.64,0.96-0.85c0.24-0.21,0.42-0.36,0.56-0.46c0.13-0.1,0.28-0.14,0.43-0.14
		c0.3,0,0.61,0.13,0.92,0.4c0.31,0.26,0.54,0.65,0.67,1.14c0.22,0.67,0.4,1.33,0.53,1.97c0.13,0.64,0.2,1.34,0.2,2.09l0.05,0.7
		c0.94-1.17,1.82-2.17,2.64-3c0.82-0.83,1.44-1.43,1.86-1.82c0.42-0.39,0.78-0.69,1.08-0.92c0.29-0.22,0.54-0.37,0.73-0.43
		c0.19-0.06,0.39-0.1,0.59-0.1c0.59,0,0.97,0.21,1.13,0.63c0.16,0.42,0.32,1,0.49,1.73c0.17,0.74,0.28,1.28,0.34,1.61
		c0.06,0.34,0.13,0.74,0.2,1.2c0.08,0.47,0.13,0.86,0.16,1.18l0.18,1.52l0.15,1.35l0.13,1.2c-1.01,0.58-1.92,1.16-2.73,1.73
		l-0.51,0.39l-0.15-1.47c-0.22-1.75-0.4-3.02-0.54-3.8c-0.14-0.79-0.33-1.5-0.56-2.13c-0.23-0.63-0.61-0.95-1.15-0.95
		c-0.29,0-0.61,0.12-0.96,0.35c-0.35,0.23-0.76,0.58-1.21,1.04c-0.46,0.46-0.92,0.98-1.39,1.56c-0.47,0.59-0.9,1.17-1.28,1.76
		c-0.38,0.59-0.76,1.2-1.15,1.84l-0.46,0.82l-0.51-0.1l-0.1-1.11c-0.12-1.19-0.21-2-0.28-2.43c-0.07-0.43-0.21-1.12-0.43-2.06
		c-0.22-0.94-0.65-1.41-1.29-1.41c-0.25,0-0.52,0.09-0.81,0.27l-0.56,0.38c-0.62,0.51-1.14,1-1.54,1.44
		c-0.4,0.45-0.9,1.09-1.48,1.91c-0.58,0.83-1.05,1.56-1.42,2.2c-0.36,0.64-0.68,1.27-0.95,1.88h-0.76l0.03-1.23v-3.76
		c0-1.48-0.06-2.46-0.18-2.96c-0.12-0.5-0.32-0.9-0.59-1.2c-0.28-0.31-0.53-0.46-0.75-0.46C54.12,25.88,53.95,25.99,53.82,26.19"/>
	<path class="st0" d="M3.31,33.44c-1.2,0.69-2.3,1.37-3.31,2.04l0.58-3.12l0.2-1.11l0.48-2.28l0.66-3.12l0.43-2l-0.68-1.11
		c-0.81-1.44-1.21-2.37-1.21-2.79c0-0.26,0.12-0.51,0.35-0.77l0.33-0.26l1.49-0.84l1.29-0.77c0.15,0.8,0.37,1.51,0.64,2.11
		c0.28,0.6,0.9,1.69,1.87,3.26c0.97,1.57,2.2,3.15,3.69,4.72c1.49,1.57,2.8,2.36,3.91,2.36c1.05,0,1.86-0.49,2.44-1.48
		c0.58-0.99,0.99-1.79,1.21-2.41c0.23-0.62,0.42-1.23,0.57-1.83c0.15-0.6,0.26-1.19,0.33-1.76c0.07-0.57,0.1-1.19,0.1-1.84v-0.7
		l2.96-1.59l1.19-0.67l1.19-0.68l-1.42,3.47l-0.43,1.08l0.23,1.66c0.29,1.69,0.59,3.13,0.92,4.35c0.33,1.21,0.75,2.4,1.25,3.58
		c0.51,1.17,0.76,1.85,0.76,2.05c0,0.11-0.05,0.24-0.15,0.39l-0.71,0.39l-2.76,1.73l-0.48-1.32c-0.54-1.57-0.97-2.96-1.28-4.15
		c-0.31-1.19-0.58-2.41-0.8-3.65l-0.66,0.96l-0.2,0.31l-1.39,2.09l-0.58,0.79c-0.27,0.34-0.45,0.55-0.53,0.65
		c-0.08,0.1-0.49,0.5-1.21,1.2c-0.73,0.71-1.5,1.06-2.33,1.06c-0.62,0-1.24-0.2-1.85-0.6c-0.61-0.4-1.18-0.85-1.73-1.36
		c-0.55-0.51-1.23-1.2-2.04-2.08l-1.75-1.93c-0.12,0.64-0.22,1.48-0.29,2.51c-0.08,1.03-0.15,1.98-0.21,2.85L3.31,33.44"/>
	<path class="st0" d="M31.59,28.3l0.91-0.19l-0.3-0.48c-0.96-1.4-1.87-2.1-2.73-2.1c-0.29,0-0.59,0.09-0.91,0.26l-0.2-0.29l1.77-1.4
		c0.51-0.4,0.93-0.7,1.28-0.9c0.35-0.2,0.65-0.3,0.92-0.3c0.35,0,0.72,0.17,1.1,0.52c0.38,0.35,0.89,0.91,1.52,1.7
		c0.63,0.79,1.34,1.8,2.11,3.03c0.77,1.23,1.67,2.79,2.68,4.67l0.33,0.6l-3.14,2.07c-0.07-0.23-0.16-0.47-0.28-0.73
		c-0.12-0.26-0.33-0.69-0.63-1.31c-0.3-0.61-0.71-1.18-1.21-1.72c-0.51-0.53-1.02-0.92-1.54-1.15c-0.52-0.23-0.94-0.39-1.25-0.47
		c-0.31-0.08-0.65-0.14-1.01-0.18c-0.36-0.04-0.62-0.06-0.77-0.06c-0.25,0-0.53,0.02-0.82,0.07c-0.29,0.05-0.53,0.17-0.71,0.35
		c-0.18,0.19-0.27,0.4-0.27,0.64c0,0.06,0.04,0.21,0.13,0.45c0.08,0.23,0.36,0.51,0.83,0.82c0.47,0.31,0.94,0.5,1.4,0.55
		c0.46,0.06,0.77,0.08,0.92,0.08c0.69,0,1.32-0.13,1.87-0.38l0.33,0.33l-0.05,0.05l-1.24,1.1c-0.64,0.57-1.19,0.97-1.64,1.21
		c-0.46,0.23-0.94,0.35-1.47,0.35h-0.61c-1.1-0.11-1.93-0.4-2.52-0.86c-0.58-0.46-0.87-1-0.87-1.63c0-0.4,0.12-0.81,0.37-1.23
		c0.24-0.42,0.59-0.84,1.02-1.26c0.44-0.42,0.97-0.8,1.59-1.16c0.62-0.35,1.37-0.64,2.23-0.87l0.35-0.07L31.59,28.3"/>
	<path class="st0" d="M38.44,19l-0.13-0.49c-0.02-0.06,0.21-0.24,0.67-0.52c0.46-0.28,1.24-0.76,2.31-1.42l0.45-0.27l0.46-0.27
		c0.13-0.06,0.25-0.12,0.34-0.18c0.09-0.06,0.19-0.1,0.3-0.15c0.11-0.04,0.23-0.06,0.37-0.06c0.3,0,0.56,0.14,0.77,0.43
		c0.21,0.29,0.32,0.71,0.32,1.25c0,0.69,0.01,1.32,0.02,1.89c0.02,0.57,0.04,1.16,0.08,1.77v8.15l0.89-0.99
		c0.98-1.09,1.66-1.84,2.04-2.24c0.38-0.4,1-0.99,1.87-1.76c0.87-0.77,1.57-1.16,2.11-1.16c0.42,0,0.74,0.23,0.95,0.69
		c0.21,0.46,0.37,0.9,0.47,1.32c0.1,0.43,0.21,0.98,0.33,1.67l0.63,5.71l0.03,0.12l0.13,0.91l-0.81,0.48l-0.78,0.51l-0.89,0.55
		l-0.86,0.55c0-0.63-0.02-1.19-0.06-1.69c-0.04-0.5-0.11-1.14-0.2-1.91c-0.09-0.78-0.2-1.46-0.32-2.03
		c-0.12-0.58-0.28-1.14-0.48-1.69c-0.2-0.55-0.55-0.82-1.04-0.82c-0.37,0-0.75,0.15-1.14,0.45c-0.39,0.3-0.72,0.58-1,0.85
		c-0.28,0.27-0.57,0.55-0.86,0.84c-0.3,0.29-0.88,0.98-1.76,2.06c-0.88,1.08-1.63,2.4-2.25,3.95l-0.61-0.22
		c0-0.85,0.03-1.92,0.09-3.2c0.06-1.28,0.09-2.07,0.09-2.38c0-3.24-0.05-5.65-0.14-7.23c-0.09-1.59-0.21-2.57-0.34-2.95
		c-0.14-0.38-0.27-0.64-0.39-0.77c-0.13-0.14-0.29-0.21-0.49-0.21c-0.2,0-0.51,0.09-0.91,0.26L38.44,19"/>
	<path class="st0" d="M127.05,15.65c0.44,0.5,0.86,1.02,1.27,1.57c-0.64-1.23-1.35-2.38-2.14-3.44c0,0,0.75,0.87,1.56,1.69
		c-2.06-4.72-5.77-7.04-7.88-7.91c-0.25-0.22-0.71-0.57-1.57-1.04c0.1,0.03,0.87,0.13,2.43,1.27c-0.39-0.58-1.67-1.5-3.54-1.9
		l-0.26-0.56l0.96,0.73l-0.72-1.06l1.18,1.09l-0.5-0.71l1.01,0.78l-0.67-1.06l1.04,1.2l-0.27-1.14l0.8,1.48l-0.66-1.69l1.05,1.41
		l-0.79-1.37l1.68,1.79l-0.95-1.47l2.36,2.07l-1.63-1.85l2.46,1.96l-2.06-2.24c0,0,1.33,0.92,2.34,1.65
		c-2.64-2.96-5.2-3.31-7.37-2.69c-0.45-0.44-0.93-0.85-1.46-1.22c0.67,0.28,1.31,0.61,1.89,0.98c-0.36-0.42-0.76-0.81-1.19-1.18
		c0.61,0.28,1.18,0.61,1.71,0.97c-0.29-0.31-0.6-0.61-0.93-0.89c0.54,0.21,1.06,0.46,1.54,0.73c-0.38-0.41-0.79-0.8-1.24-1.16
		c0.04-0.04,1.84,1.02,1.87,1.08c0.11-0.02-1.24-1.19-1.52-1.38c0.82,0.39,1.56,0.84,2.23,1.36c-0.51-0.61-1.09-1.16-1.74-1.66
		c1.04,0.52,1.97,1.16,2.75,1.9c-0.63-0.85-1.39-1.62-2.26-2.29c0.88,0.42,1.68,0.92,2.38,1.49c-0.59-0.72-1.28-1.37-2.05-1.94
		c1.14,0.38,2.16,0.88,3.06,1.49c-0.42-0.52-0.89-1-1.41-1.45c0.85,0.43,1.62,0.94,2.29,1.53c-0.39-0.49-0.82-0.94-1.3-1.36
		c0.74,0.47,1.41,1.01,1.98,1.62c-0.34-0.53-0.72-1.03-1.15-1.49c0.74,0.58,1.38,1.25,1.91,1.98c-0.4-0.75-0.9-1.46-1.48-2.1
		c0.56,0.4,1.07,0.84,1.53,1.32c-0.18-0.36-0.38-0.71-0.6-1.05c0.32,0.36,0.6,0.75,0.86,1.15c-0.05-0.3-0.12-0.59-0.19-0.88
		c0.27,0.36,0.52,0.73,0.74,1.12c-0.11-0.37-0.24-0.73-0.38-1.09c-0.01,0.01,0.4,0.34,1.11,1.35c-0.9-2.31-2.73-3.04-4.45-3.13
		c-1.74-0.08-3.37,0.48-4.51,0.87c-2.29,0.83-2.38,1.7-3.49,3.53l1.12-3.88l-1.5,3.53l-0.2-2.12l-0.27,2.42
		c-0.1,0.23-0.19,0.48-0.25,0.64l-0.07-0.18l-0.05-1.45l-0.12,1l-0.65-1.71l0.32,1.51l-0.25-1.09l0.28,2.66l-0.62-4.17l0.2,3.84
		l-0.85-2.44l0.33,1.81L109,1.71l0.32,1.87l-0.56-1.61l-0.02,0.82l-1.16-1.83l0.92,2.09l-1.1-1.66l0.84,1.58l-1.44-1.03l2.01,1.73
		l-2.37-1.13l2.42,1.5l-2.95-1.15l2.77,1.58l-2.8-0.69l2.84,1.07l-2.66-0.48l3.08,0.81c0,0,0.73,0.47,1.16,1.1
		c-2.93-1.55-5.03-1.41-6.18-0.99c-1.37,0.53-1.48,1.4-1.26,1.68c0.39,0.45,0.98,1.03,2.02,1.6c-0.15,0.1-0.29,0.2-0.39,0.31
		c-0.63,0.54-1.11,1.49-1.17,2.44c-0.09,0.95,0.25,1.9,0.67,2.46c-0.55-1.22-0.13-2.92-0.1-2.9c0.06,0.76,0.26,1.51,0.61,2.24
		c-0.97,1.65-0.94,2.87-0.84,3.6c0.69-1.38-0.21,0.91-0.15,0.9c0.27-0.35,0.11,0.75,0.22,1.8c0.06,1.07,0.39,2.08,0.4,2.07
		c-0.16-0.88,0.08-2.88,0.13-2.89c0.04,0.79,0.16,1.55,0.38,2.26c-0.19-0.8-0.25-1.66-0.18-2.57c0.18,0.45,0.36,0.9,0.56,1.34
		c-0.1-0.77-0.12-1.59-0.03-2.43c-0.03,0.01,0.64,2.22,1.28,3.3c-0.43-1.11-1.21-2.76-1.15-3.72c0.74,1.58,1.78,3.58,1.76,3.59
		c-0.72-1.87-1.57-3.92-1.57-3.92c0.84,1.68,1.74,3.35,1.73,3.36c-0.75-1.98-1.33-3.99-1.32-3.99c0.5,0.92,0.96,1.87,1.36,2.83
		c-0.45-1.33-0.93-2.64-1.43-3.94c0,0,0.53,0.85,1.22,0.97c-0.63-0.72-0.94-1.62-0.93-1.62c0.64,0.82,0.92,0.74,1.24,0.89
		c-0.43-0.51-0.63-1.53-0.62-1.54c0.5,0.54,1.08,0.58,1.08,0.58c-0.25-0.46-0.77-1.2-0.78-1.2c0.21,0.07,0.41,0.14,0.61,0.22
		c-0.07-0.39-0.13-0.77-0.2-1.16c0.29,0.17,0.57,0.35,0.84,0.53c-0.04-0.25-0.09-0.49-0.13-0.74c0,0,0.33,0.25,0.75,0.35
		c-0.37-0.47-0.22-0.64-0.22-0.64c0.15,0,0.29,0.01,0.43,0.02c-0.01-0.24-0.03-0.47-0.04-0.71c0.27,0.02,0.53,0.04,0.78,0.06
		c-0.62,0.89-1.09,1.83-1.24,2.46c-0.26,0.85-0.31,2.24-0.06,3.52c0.22,1.29,0.74,2.48,1.01,3.08c0.56,1.23,0.94,1.38,0.92,1.39
		c0.41,0.57,0.88,1.12,1.4,1.62c-0.29-0.38-0.56-0.76-0.8-1.16c0.36,0.36,0.75,0.7,1.16,1.03c-0.28-0.3-0.54-0.61-0.77-0.93
		c0.18,0.04,0.36,0.08,0.54,0.11c-0.27-0.18-0.53-0.37-0.78-0.57c0.26,0.11,0.53,0.21,0.79,0.31c-0.49-0.34-0.95-0.71-1.39-1.11
		c0.34,0.22,0.68,0.43,1.04,0.63c-0.4-0.37-0.78-0.76-1.14-1.17c0.36,0.28,0.73,0.54,1.12,0.78c-0.34-0.31-0.66-0.64-0.96-0.99
		c0.49,0.42,1.01,0.8,1.55,1.15c-0.11-0.16-0.22-0.32-0.32-0.48c0.39,0.23,0.78,0.45,1.19,0.65c-0.57-0.3-1.13-0.63-1.66-0.99
		c0.34,0.07,0.69,0.14,1.04,0.2c-0.58-0.26-1.14-0.55-1.68-0.87c0.37,0.08,0.74,0.15,1.12,0.21c-0.58-0.24-1.15-0.51-1.71-0.8
		c0.44,0.09,0.88,0.17,1.32,0.24c-0.26-0.14-0.52-0.28-0.77-0.43c0.21-0.08,0.42-0.16,0.63-0.24c-0.39-0.11-0.77-0.23-1.15-0.35
		c0.3-0.06,0.61-0.12,0.91-0.18c-0.51-0.13-1.02-0.28-1.52-0.43c0.47,0.01,0.94,0.02,1.41,0.02c-0.6-0.23-1.18-0.48-1.76-0.75
		c0.36,0.03,0.72,0.06,1.08,0.08c-0.38-0.28-0.76-0.58-1.11-0.9c0.45,0.21,0.91,0.41,1.38,0.6c-0.22-0.19-0.43-0.39-0.64-0.59
		c0.19-0.01,0.38-0.03,0.57-0.04c-0.43-0.25-0.84-0.52-1.24-0.79c0.33,0.08,0.67,0.17,1,0.24c-0.31-0.24-0.62-0.49-0.92-0.75
		c0.24,0.07,0.48,0.15,0.72,0.22c-0.24-0.18-0.47-0.36-0.7-0.55c0.19,0.05,0.39,0.09,0.58,0.13c-0.24-0.15-0.47-0.31-0.7-0.48
		c0.27,0.01,0.54,0.03,0.81,0.04c-0.21-0.2-0.41-0.41-0.61-0.63c0.33,0.21,0.66,0.4,1,0.6c-0.31-0.33-0.6-0.66-0.87-1.01
		c0.25,0.12,0.51,0.24,0.77,0.36c-0.15-0.21-0.29-0.43-0.42-0.64c0.23,0.06,0.46,0.13,0.69,0.19c-0.3-0.2-0.59-0.4-0.88-0.61
		c0.22,0.1,0.45,0.19,0.68,0.28c-0.18-0.18-0.36-0.37-0.53-0.56c0.18,0.07,0.35,0.14,0.53,0.21c-0.11-0.2-0.21-0.4-0.31-0.6
		c0.2,0.15,0.4,0.3,0.6,0.45c-0.15-0.21-0.3-0.43-0.43-0.64c0.15,0.11,0.3,0.22,0.46,0.32c-0.1-0.23-0.2-0.46-0.28-0.69
		c0,0,0.44,0.32,0.43,0.26c-0.02-0.05-0.14-0.52-0.14-0.52c0.08,0.05,0.15,0.09,0.23,0.14c-0.04-0.19-0.08-0.39-0.11-0.58
		c0.07,0.09,0.14,0.17,0.21,0.26c-0.03-0.12-0.06-0.23-0.09-0.35c0.07,0.06,0.14,0.11,0.21,0.17c-0.02-0.12-0.05-0.24-0.06-0.36
		c0.09,0,0.17,0.01,0.26,0.01c0.05-0.18,0.11-0.37,0.17-0.55c0.08,0,0.16,0,0.24,0c0.05-0.07,0.1-0.14,0.15-0.21
		c0,0,0.12-1.14,1.04-1.58c0.09,0,0.18-0.01,0.26-0.01c0.59,0.16,1.19,0.34,1.78,0.56c0.1-0.08,0.19-0.16,0.29-0.25
		c0.83,0.66,1.61,1.38,2.34,2.16c-0.25-0.43-0.52-0.86-0.81-1.28c1.43,1.07,2.76,2.34,3.94,3.8c-0.98-1.42-2.1-2.71-3.33-3.84
		c0.93,0.7,1.82,1.48,2.65,2.34c-0.41-0.54-0.84-1.07-1.29-1.57c0.77,0.6,1.51,1.26,2.22,1.97c-0.49-0.73-1.02-1.43-1.59-2.1
		c0.92,0.68,1.8,1.44,2.64,2.28c-0.49-0.65-1.01-1.27-1.56-1.86c1.02,0.88,1.99,1.88,2.87,2.97c-0.27-0.58-0.55-1.15-0.86-1.7
		c0.51,0.71,0.98,1.44,1.42,2.21c-0.2-0.63-0.43-1.25-0.68-1.86c0.59,0.83,1.13,1.71,1.62,2.62c-0.21-0.63-0.45-1.26-0.71-1.87
		c0.57,1.03,1.07,2.11,1.5,3.23c-0.23-0.88-0.49-1.75-0.81-2.6c0.74,1.36,1.37,2.8,1.87,4.31c-0.13-0.91-0.31-1.81-0.53-2.71
		c0.48,0.93,0.92,1.9,1.3,2.91C127.33,16.78,127.2,16.21,127.05,15.65 M103.79,7.1c0.55,0.19,1.08,0.43,1.61,0.72
		c-0.42-0.29-0.86-0.56-1.32-0.8c0.52,0.23,1.03,0.49,1.52,0.79c-0.45-0.33-0.92-0.63-1.42-0.9c0.53,0.22,1.05,0.49,1.56,0.79
		c-0.49-0.34-1-0.65-1.54-0.92c0.54,0.2,1.08,0.46,1.6,0.76c-0.61-0.4-1.26-0.74-1.93-1.02c0.66,0.22,1.31,0.51,1.94,0.86
		c-0.47-0.3-0.95-0.57-1.44-0.81c0.43,0.13,0.86,0.29,1.29,0.48c-0.32-0.2-0.64-0.39-0.97-0.56c0.45,0.19,0.89,0.42,1.32,0.67
		c-0.39-0.32-0.8-0.63-1.24-0.93c0.58,0.3,1.14,0.64,1.68,1.02c-0.46-0.42-0.96-0.83-1.49-1.21c0.68,0.39,1.32,0.83,1.93,1.31
		c-0.29-0.37-0.61-0.74-0.96-1.11c0.46,0.3,0.91,0.62,1.35,0.97c-0.11-0.26-0.22-0.52-0.36-0.8c0.47,0.35,0.92,0.73,1.35,1.13
		c-0.91,0.1-1.8,0.29-2.52,0.57c-0.37-0.22-0.74-0.41-1.12-0.58c0.2,0.07,0.4,0.14,0.6,0.23c-0.38-0.2-0.77-0.37-1.17-0.51
		c0.22,0.07,0.43,0.14,0.65,0.23C104.4,7.36,104.1,7.22,103.79,7.1z M105.72,8.14c-0.04,0.02-0.08,0.03-0.12,0.05
		c-0.41-0.25-0.84-0.48-1.27-0.68C104.8,7.67,105.26,7.89,105.72,8.14z M104.06,7.65c0.45,0.16,0.9,0.35,1.35,0.59
		c-0.38-0.23-0.77-0.44-1.17-0.62c0.45,0.15,0.9,0.35,1.35,0.58c-0.09,0.04-0.17,0.07-0.25,0.11c-0.31-0.15-0.62-0.28-0.94-0.38
		c0.24,0.07,0.49,0.15,0.74,0.25C104.79,7.98,104.43,7.8,104.06,7.65z M105.33,8.31c-0.01,0-0.02,0.01-0.03,0.01
		c-0.3-0.13-0.6-0.25-0.9-0.34C104.71,8.06,105.02,8.18,105.33,8.31z M105.3,8.32c-0.02,0.01-0.04,0.02-0.07,0.03
		c-0.16-0.08-0.31-0.17-0.47-0.24C104.94,8.18,105.12,8.25,105.3,8.32z M105.21,8.37c-0.01,0-0.02,0.01-0.02,0.01
		c-0.11-0.06-0.23-0.12-0.35-0.17C104.97,8.26,105.09,8.32,105.21,8.37z M104.86,8.27c0.1,0.04,0.19,0.08,0.29,0.12
		c-0.01,0-0.02,0.01-0.03,0.02C105.04,8.37,104.95,8.32,104.86,8.27z M105.05,8.46C105.05,8.45,105.05,8.45,105.05,8.46
		C105.05,8.45,105.05,8.45,105.05,8.46z M104.55,13.02c-0.01,0.01-0.01,0.03-0.02,0.04c-0.28-0.74-0.4-1.5-0.38-2.26
		c0.11,0.63,0.33,1.25,0.64,1.85C104.71,12.78,104.63,12.91,104.55,13.02z M104.91,12.5c-0.12-0.44-0.19-0.88-0.2-1.32
		c0.09,0.36,0.22,0.72,0.39,1.08C105.03,12.34,104.97,12.42,104.91,12.5z M105.17,12.17c-0.19-0.88-0.16-1.77,0.07-2.62
		c-0.1,0.7-0.07,1.42,0.1,2.12c-0.02-0.74,0.12-1.47,0.4-2.17c-0.14,0.67-0.15,1.36-0.02,2.05
		C105.51,11.76,105.33,11.96,105.17,12.17z M105.73,11.53c-0.05-0.88,0.12-1.75,0.5-2.57c-0.09,0.56-0.08,1.14,0.01,1.72
		c0.03-0.52,0.13-1.03,0.31-1.52c-0.05,0.49-0.04,0.98,0.03,1.49c0.04-0.36,0.11-0.72,0.22-1.07c0.03,0.28,0.08,0.56,0.15,0.84
		C106.49,10.79,106.09,11.16,105.73,11.53z M107.13,10.29c0.04-0.2,0.09-0.39,0.15-0.58c0.01,0.14,0.04,0.29,0.06,0.43
		C107.27,10.19,107.2,10.24,107.13,10.29z M107.47,10.04c0.07-0.29,0.16-0.58,0.28-0.85c0,0.21,0.01,0.42,0.03,0.64
		C107.67,9.9,107.57,9.97,107.47,10.04z M107.96,9.71c-0.05,0.03-0.1,0.07-0.15,0.1c0.07-0.3,0.17-0.59,0.29-0.88
		C108.03,9.19,107.99,9.45,107.96,9.71z M108.3,9.49c-0.09,0.05-0.17,0.1-0.25,0.16c0.07-0.25,0.15-0.49,0.26-0.72
		C108.29,9.11,108.29,9.3,108.3,9.49z M108.41,9.42c0.05-0.2,0.11-0.4,0.19-0.6c0.06,0.13,0.11,0.25,0.17,0.38
		C108.65,9.28,108.53,9.35,108.41,9.42z M108.33,7.55c-0.18-0.33-0.38-0.66-0.6-1c0.37,0.3,0.73,0.63,1.08,0.96
		C108.65,7.52,108.49,7.53,108.33,7.55z M109.21,8.96c-0.11,0.06-0.22,0.12-0.32,0.18c0.1-0.16,0.22-0.32,0.34-0.47
		C109.22,8.77,109.21,8.87,109.21,8.96z M109.26,7.35c0.06,0.05,0.13,0.1,0.2,0.15c-0.07,0-0.13,0-0.2,0
		C109.26,7.45,109.26,7.4,109.26,7.35z M109.33,8.9c0.06-0.11,0.1-0.22,0.17-0.32c0.01,0.07,0.03,0.14,0.04,0.22
		C109.46,8.83,109.39,8.86,109.33,8.9z M109.73,8.69c0.06-0.06,0.11-0.13,0.17-0.19c0.02,0.03,0.04,0.05,0.05,0.08
		C109.88,8.62,109.81,8.66,109.73,8.69z M109.8,10.57c0-0.12,0-0.26,0-0.3c0-0.04,0.15-0.08,0.31-0.1
		C110,10.3,109.9,10.44,109.8,10.57z M110.46,9.75c-0.02,0.02-0.04,0.04-0.06,0.07c0-0.11,0.01-0.23,0.01-0.34
		c0.22-0.14,0.46-0.27,0.69-0.41C110.89,9.27,110.67,9.5,110.46,9.75z M116.89,5.83c-0.11-0.02-0.23-0.04-0.35-0.05l-0.13-0.36
		L116.89,5.83z M116.28,5.75c-0.1-0.01-0.21-0.02-0.32-0.03l0.05-0.22L116.28,5.75z M114.69,3.39c0.48,0.26,0.93,0.55,1.36,0.86
		c-0.23,0.07-0.45,0.15-0.67,0.24c-0.31-0.28-0.63-0.55-0.97-0.8c0.34,0.12,0.66,0.26,0.98,0.4C115.16,3.85,114.93,3.62,114.69,3.39
		z M115.47,5.69c-0.04,0-0.08,0-0.12,0l-0.06-0.16L115.47,5.69z M115.36,4.49c-0.14,0.06-0.29,0.12-0.43,0.19
		c-0.21-0.24-0.43-0.47-0.66-0.69C114.65,4.14,115.01,4.31,115.36,4.49z M114.79,4.74c-0.17,0.08-0.34,0.17-0.5,0.26
		c-0.15-0.23-0.3-0.46-0.47-0.68C114.16,4.45,114.48,4.59,114.79,4.74z M114.19,5.06c-0.05,0.03-0.11,0.06-0.16,0.09
		c-0.14-0.12-0.28-0.25-0.43-0.37C113.8,4.87,113.99,4.96,114.19,5.06z M113.37,5.56c-0.03-0.04-0.06-0.08-0.08-0.11
		c0,0,0.07,0.03,0.15,0.07C113.42,5.53,113.39,5.54,113.37,5.56z M113.34,5.05c0.16,0.07,0.31,0.15,0.46,0.23
		c-0.06,0.03-0.11,0.07-0.17,0.11C113.48,5.22,113.34,5.05,113.34,5.05z M113.63,6.39c0.01-0.01,0.03-0.02,0.04-0.04l0.29-0.02
		c-0.09,0.02-0.19,0.05-0.3,0.08L113.63,6.39z M114.34,6.58c-0.2,0-0.4,0-0.59,0l0.03-0.02l-0.02-0.02c0.28-0.13,0.62-0.2,1.08-0.16
		c-0.06,0-0.18-0.13-0.57-0.09l-0.01-0.23l0.83,0.27l-0.18-0.4c0.06,0,0.11,0,0.17,0.01l0.46,0.26l-0.07-0.19
		c0.29,0.08,0.56,0.21,0.79,0.39c0.13,0.1,0.24,0.22,0.33,0.34C115.85,6.64,115.07,6.58,114.34,6.58z M117.58,6.9
		c-0.28-0.23-0.56-0.44-0.86-0.65c0.45,0.22,0.89,0.47,1.32,0.74C117.89,6.96,117.74,6.93,117.58,6.9z M119.12,7.29
		c-0.22-0.08-0.49-0.16-0.8-0.24c-0.4-0.3-0.8-0.57-1.22-0.82c0-0.05,1.47,0.57,2.5,1.22C119.43,7.39,119.27,7.34,119.12,7.29z"/>
	<path class="st0" d="M111.85,9.21c0.05,0.05,0.1,0.1,0.14,0.15c0.06,0.03,0.1,0.05,0.14,0.07c0,0.01,0,0.02,0.01,0.03
		c0.28,0.43,0.55,0.86,0.81,1.31c0.02,0.03,0.01,0.07-0.03,0.09c-0.07,0.03-0.1,0.12-0.06,0.19c0.26,0.44,0.5,0.88,0.74,1.34
		c0.02,0.03,0,0.07-0.03,0.09c-0.07,0.03-0.11,0.11-0.07,0.18c0.23,0.44,0.45,0.9,0.66,1.35c0.02,0.04,0.01,0.08-0.03,0.1
		c-0.08,0.03-0.11,0.11-0.08,0.19c0.2,0.45,0.4,0.9,0.58,1.36c0.01,0.04,0,0.08-0.04,0.09c-0.08,0.02-0.12,0.11-0.09,0.18
		c0.18,0.46,0.35,0.92,0.51,1.38c0.01,0.04,0,0.08-0.04,0.09c-0.08,0.02-0.13,0.1-0.1,0.18c0.15,0.46,0.3,0.93,0.43,1.4
		c0.01,0.04-0.01,0.08-0.05,0.09c-0.08,0.01-0.14,0.09-0.11,0.17c0.13,0.47,0.25,0.94,0.36,1.42c0.01,0.04-0.01,0.08-0.05,0.08
		c-0.08,0.01-0.14,0.08-0.12,0.16c0.11,0.47,0.2,0.95,0.28,1.43c0.01,0.04-0.02,0.08-0.06,0.08c-0.08,0-0.15,0.07-0.13,0.15
		c0.08,0.48,0.15,0.96,0.21,1.44c0.01,0.04-0.02,0.08-0.06,0.08c-0.08,0-0.15,0.07-0.14,0.15c0.06,0.48,0.1,0.96,0.14,1.44
		c0,0.04-0.03,0.08-0.07,0.07c-0.08,0-0.16,0.06-0.15,0.14c0.03,0.48,0.05,0.96,0.06,1.45c0,0.04-0.03,0.07-0.07,0.07
		c-0.09-0.01-0.16,0.06-0.16,0.14c0.01,0.48,0,0.95-0.01,1.43c0,0.04-0.04,0.07-0.08,0.07c-0.09-0.01-0.17,0.05-0.17,0.13
		c-0.02,0.48-0.05,0.95-0.08,1.43c0,0.04-0.04,0.07-0.08,0.06c-0.08-0.02-0.17,0.04-0.18,0.13c-0.04,0.47-0.1,0.95-0.16,1.42
		c-0.01,0.04-0.04,0.07-0.08,0.06c-0.08-0.02-0.17,0.03-0.18,0.12c-0.07,0.47-0.14,0.94-0.23,1.41c-0.01,0.04-0.05,0.06-0.09,0.05
		c0,0-0.01,0-0.01,0c-0.08-0.03-0.16,0.03-0.18,0.11c-0.09,0.47-0.19,0.93-0.3,1.4c-0.01,0.04-0.06,0.06-0.09,0.05
		c0,0-0.01,0-0.01,0c-0.08-0.03-0.16,0.02-0.18,0.1c-0.12,0.46-0.24,0.92-0.38,1.39c-0.01,0.04-0.06,0.06-0.1,0.04
		c0,0-0.01,0-0.01,0c-0.08-0.03-0.17,0.01-0.19,0.09c-0.14,0.46-0.29,0.91-0.45,1.37c-0.01,0.04-0.06,0.06-0.1,0.04
		c0,0-0.01,0-0.01-0.01c-0.08-0.04-0.17,0-0.2,0.08c-0.16,0.45-0.34,0.9-0.53,1.35c-0.02,0.04-0.06,0.05-0.1,0.03
		c0,0-0.01,0-0.01-0.01c-0.08-0.04-0.17-0.01-0.21,0.07c-0.53,1.24-1.14,2.46-1.85,3.66c-0.04,0.08-0.03,0.18,0.04,0.23
		c0.71,0.53,1.41,1.07,2.12,1.6c0.07,0.06,0.18,0.04,0.24-0.02c1.03-1.12,1.98-2.3,2.85-3.53c0.05-0.07,0.03-0.17-0.05-0.21
		c0,0-0.01,0-0.01,0c-0.04-0.02-0.05-0.07-0.02-0.1c0.31-0.45,0.61-0.9,0.9-1.36c0.05-0.07,0.02-0.17-0.06-0.21c0,0-0.01,0-0.01,0
		c-0.04-0.02-0.05-0.07-0.03-0.1c0.28-0.46,0.56-0.92,0.82-1.39c0.04-0.07,0.01-0.17-0.07-0.2c0,0-0.01,0-0.01,0
		c-0.04-0.02-0.05-0.06-0.03-0.1c0.26-0.47,0.5-0.94,0.74-1.43c0.04-0.08,0-0.17-0.08-0.2c0,0-0.01,0-0.01,0
		c-0.04-0.01-0.06-0.06-0.04-0.1c0.23-0.48,0.45-0.96,0.66-1.45c0.04-0.08-0.02-0.17-0.1-0.2c-0.04-0.01-0.06-0.06-0.04-0.1
		c0.2-0.49,0.4-0.98,0.58-1.48c0.03-0.08-0.02-0.17-0.11-0.19c-0.04-0.01-0.06-0.05-0.05-0.09c0.18-0.5,0.34-1,0.5-1.5
		c0.02-0.08-0.03-0.17-0.12-0.18c-0.04-0.01-0.06-0.05-0.05-0.09c0.15-0.5,0.29-1.01,0.41-1.52c0.02-0.08-0.04-0.16-0.12-0.18
		c-0.04-0.01-0.07-0.05-0.06-0.09c0.12-0.51,0.24-1.02,0.33-1.54c0.02-0.08-0.05-0.16-0.13-0.17c-0.04,0-0.07-0.04-0.06-0.08
		c0.1-0.51,0.18-1.03,0.25-1.55c0.01-0.08-0.06-0.16-0.14-0.16c-0.04,0-0.07-0.04-0.06-0.08c0.07-0.52,0.13-1.04,0.17-1.56
		c0.01-0.08-0.06-0.15-0.15-0.15c-0.04,0-0.07-0.04-0.07-0.08c0.04-0.52,0.07-1.04,0.09-1.56c0-0.08-0.07-0.15-0.15-0.15
		c-0.04,0-0.07-0.03-0.07-0.07c0.01-0.52,0.02-1.04,0.01-1.57c0-0.08-0.08-0.15-0.16-0.14c-0.04,0-0.07-0.03-0.07-0.07
		c-0.01-0.52-0.04-1.04-0.08-1.57c-0.01-0.08-0.08-0.14-0.17-0.13c-0.04,0.01-0.07-0.03-0.08-0.07c-0.04-0.52-0.1-1.04-0.16-1.56
		c-0.01-0.08-0.09-0.14-0.17-0.12c-0.04,0.01-0.07-0.02-0.08-0.06c-0.07-0.52-0.15-1.04-0.25-1.57c-0.01-0.08-0.1-0.12-0.17-0.1
		c-0.04,0.01-0.07-0.02-0.08-0.06c-0.1-0.52-0.21-1.04-0.33-1.55c-0.02-0.08-0.1-0.12-0.18-0.09c-0.04,0.01-0.07-0.02-0.08-0.05
		c-0.13-0.51-0.27-1.03-0.42-1.54c-0.02-0.07-0.11-0.11-0.18-0.08c-0.04,0.01-0.07-0.01-0.09-0.05c-0.15-0.51-0.32-1.02-0.5-1.52
		c-0.03-0.07-0.11-0.11-0.18-0.07c-0.04,0.02-0.07-0.01-0.09-0.05c-0.18-0.5-0.38-1-0.59-1.5c-0.03-0.07-0.12-0.1-0.19-0.06
		c-0.04,0.02-0.07,0-0.09-0.04c-0.14-0.32-0.28-0.63-0.43-0.95C111.97,8.07,111.85,9.21,111.85,9.21"/>
	<path class="st0" d="M47.47,46.67c1.62,1.55,3.44-0.98,5.07-2.22c1.63-1.24,6.53-4.31,16.51-4.31s19.95,3.83,24.3,4.95
		c4.35,1.11,13.74,4.21,20.45,4.11c4.11-0.02,8.95-1.81,8.95-1.81s-4.44,1-8.99,1c-4.55,0-11.67-1.89-20.1-4.76
		c-8.44-2.88-17.19-6.14-26.94-6.14c-11.61,0-17.45,5.62-17.45,5.62S46.23,45.49,47.47,46.67"/>
</g>
</svg>
